<svg xmlns="http://www.w3.org/2000/svg" xmlns:xlink="http://www.w3.org/1999/xlink"><symbol id="icon-apple" viewBox="0 0 15.05 18.48"><path d="M7.64 5.31c-.73 0-1.86-.83-3-.8A4.5 4.5 0 00.77 6.83c-1.63 2.83-.42 7 1.17 9.31.78 1.12 1.7 2.38 2.92 2.34s1.61-.76 3-.76 1.81.76 3.05.73 2.06-1.14 2.83-2.27a10.05 10.05 0 001.28-2.63 4.08 4.08 0 01-2.48-3.74 4.15 4.15 0 012-3.51 4.33 4.33 0 00-3.38-1.83c-1.51-.12-2.8.84-3.52.84zM10.24 3a4 4 0 00.96-3 4.16 4.16 0 00-2.72 1.4 3.87 3.87 0 00-1 2.86A3.45 3.45 0 0010.24 3"/></symbol><symbol id="icon-facebook" viewBox="0 0 16 28"><path d="M14.984.187v4.125h-2.453c-1.922 0-2.281.922-2.281 2.25v2.953h4.578l-.609 4.625H10.25v11.859H5.469V14.14H1.485V9.515h3.984V6.109C5.469 2.156 7.891 0 11.422 0c1.687 0 3.141.125 3.563.187z"/></symbol><symbol id="icon-github" viewBox="0 0 32.58 31.77"><path d="M16.29 0a16.29 16.29 0 00-5.15 31.75c.82.15 1.11-.36 1.11-.79v-2.77C7.7 29.18 6.74 26 6.74 26a4.36 4.36 0 00-1.81-2.39c-1.47-1 .12-1 .12-1a3.43 3.43 0 012.49 1.68 3.48 3.48 0 004.74 1.36 3.46 3.46 0 011-2.18c-3.62-.41-7.42-1.81-7.42-8a6.3 6.3 0 011.67-4.37 5.94 5.94 0 01.16-4.31s1.37-.44 4.48 1.67a15.41 15.41 0 018.16 0c3.11-2.11 4.47-1.67 4.47-1.67a5.91 5.91 0 01.2 4.28 6.3 6.3 0 011.67 4.37c0 6.26-3.81 7.63-7.44 8a3.85 3.85 0 011.11 3v4.47c0 .53.29.94 1.12.78A16.29 16.29 0 0016.29 0z" fill-rule="evenodd"/></symbol><symbol id="icon-google" viewBox="0 0 23.516 28"><path d="M12 12.281h11.328c.11.61.188 1.203.188 2C23.516 21.125 18.922 26 12 26 5.36 26 0 20.64 0 14S5.36 2 12 2c3.234 0 5.953 1.188 8.047 3.14L16.78 8.282c-.89-.86-2.453-1.86-4.781-1.86-4.094 0-7.438 3.391-7.438 7.579S7.906 21.578 12 21.578c4.75 0 6.531-3.406 6.813-5.172H12v-4.125z"/></symbol><symbol id="icon-instagram" viewBox="0 0 24 28"><path d="M16 14c0-2.203-1.797-4-4-4s-4 1.797-4 4 1.797 4 4 4 4-1.797 4-4zm2.156 0c0 3.406-2.75 6.156-6.156 6.156S5.844 17.406 5.844 14 8.594 7.844 12 7.844s6.156 2.75 6.156 6.156zm1.688-6.406c0 .797-.641 1.437-1.437 1.437S16.97 8.39 16.97 7.594s.641-1.437 1.437-1.437 1.437.641 1.437 1.437zM12 4.156c-1.75 0-5.5-.141-7.078.484-.547.219-.953.484-1.375.906s-.688.828-.906 1.375c-.625 1.578-.484 5.328-.484 7.078s-.141 5.5.484 7.078c.219.547.484.953.906 1.375s.828.688 1.375.906c1.578.625 5.328.484 7.078.484s5.5.141 7.078-.484c.547-.219.953-.484 1.375-.906s.688-.828.906-1.375c.625-1.578.484-5.328.484-7.078s.141-5.5-.484-7.078c-.219-.547-.484-.953-.906-1.375s-.828-.688-1.375-.906C17.5 4.015 13.75 4.156 12 4.156zM24 14c0 1.656.016 3.297-.078 4.953-.094 1.922-.531 3.625-1.937 5.031s-3.109 1.844-5.031 1.937c-1.656.094-3.297.078-4.953.078s-3.297.016-4.953-.078c-1.922-.094-3.625-.531-5.031-1.937S.173 20.875.08 18.953C-.014 17.297.002 15.656.002 14s-.016-3.297.078-4.953c.094-1.922.531-3.625 1.937-5.031s3.109-1.844 5.031-1.937c1.656-.094 3.297-.078 4.953-.078s3.297-.016 4.953.078c1.922.094 3.625.531 5.031 1.937s1.844 3.109 1.937 5.031C24.016 10.703 24 12.344 24 14z"/></symbol><symbol id="icon-linkedin" viewBox="0 0 24 28"><path d="M5.453 9.766V25.25H.297V9.766h5.156zm.328-4.782c.016 1.484-1.109 2.672-2.906 2.672h-.031C1.11 7.656 0 6.468 0 4.984c0-1.516 1.156-2.672 2.906-2.672 1.766 0 2.859 1.156 2.875 2.672zM24 16.375v8.875h-5.141v-8.281c0-2.078-.75-3.5-2.609-3.5-1.422 0-2.266.953-2.641 1.875-.125.344-.172.797-.172 1.266v8.641H8.296c.063-14.031 0-15.484 0-15.484h5.141v2.25h-.031c.672-1.062 1.891-2.609 4.672-2.609 3.391 0 5.922 2.219 5.922 6.969z"/></symbol><symbol id="icon-telegram" viewBox="0 0 333.22 280.72"><path d="M311.83 1.1L7.08 119.85a11.12 11.12 0 00.89 21l77.44 22.86 28.9 91.71a13.3 13.3 0 0022.18 5.31l40-40.88 78.56 57.66a16.39 16.39 0 0025.75-9.86l52-248.76A15.68 15.68 0 00311.83 1.1zm-38.21 55.2L132.07 181.48a7.6 7.6 0 00-2.52 4.85l-5.45 48.44a1.47 1.47 0 01-2.86.28l-22.43-72.26a7.61 7.61 0 013.26-8.71L269.23 50.4a3.69 3.69 0 014.39 5.9z"/></symbol><symbol id="icon-twitter" viewBox="0 0 24 24"><path d="M17.751 3h3.067l-6.7 7.658L22 21.078h-6.172l-4.833-6.32-5.531 6.32h-3.07l7.167-8.19L2 3h6.328l4.37 5.777L17.75 3zm-1.076 16.242h1.7L7.404 4.74H5.58l11.094 14.503z"/></symbol><symbol id="icon-vkontakte" viewBox="0 0 128 128"><path d="M125 31c.9-3 0-5.2-4.2-5.2h-14c-2.7-.2-5.2 1.4-6.1 4 0 0-7.1 17.3-17.2 28.6-3.3 3.3-4.8 4.3-6.5 4.3-.9 0-2.2-1-2.2-4V31c0-3.6-1-5.2-4-5.2h-22c-1.9-.1-3.5 1.3-3.6 3.2 0 3.4 5 4.2 5.6 13.7v20.6c0 4.5-.8 5.3-2.6 5.3-4.8 0-16.3-17.4-23.1-37.4-1.3-3.9-2.7-5.4-6.3-5.4h-14c-4 0-4.8 1.9-4.8 4C0 33.6 4.8 52 22.1 76.3c11.6 16.6 27.9 25.6 42.7 25.6 8.9 0 10-2 10-5.4V83.9c0-4 .8-4.8 3.7-4.8 2.1 0 5.6 1 13.9 9 9.5 9.5 11.1 13.8 16.4 13.8h14c4 0 6-2 4.9-5.9s-5.8-9.6-11.8-16.4c-3.3-3.9-8.2-8-9.6-10.1-2.1-2.7-1.5-3.9 0-6.2-.1-.1 16.9-24.1 18.7-32.3z"/></symbol><symbol id="icon-wechat" viewBox="0 0 145.97 118.03"><path d="M116.66 71.22a5.86 5.86 0 115.86-5.86 5.86 5.86 0 01-5.86 5.86m-29.32 0a5.86 5.86 0 115.87-5.86 5.86 5.86 0 01-5.87 5.86m43.43 33.56C140 98.06 146 88.12 146 77.09c0-20.24-19.69-36.64-44-36.64s-44 16.4-44 36.64 19.68 36.63 44 36.63a52 52 0 0014.35-2 4.25 4.25 0 011.29-.2 4.59 4.59 0 012.34.68l9.62 5.55a1.62 1.62 0 00.85.28 1.46 1.46 0 001.46-1.47 4.45 4.45 0 00-.23-1.07c-.06-.21-1.24-4.63-2-7.39a3.3 3.3 0 01-.16-.93 2.93 2.93 0 011.23-2.39"/><path d="M70.34 36.93a7 7 0 117-7 7 7 0 01-7 7m-35.17 0a7 7 0 117-7 7 7 0 01-7 7M52.76 0C23.62 0 0 19.69 0 44c0 13.21 7.11 25.14 18.23 33.2a3.51 3.51 0 011.48 2.86 4.24 4.24 0 01-.19 1.12c-.89 3.32-2.31 8.62-2.38 8.87a5.22 5.22 0 00-.28 1.29 1.75 1.75 0 001.76 1.75 2.08 2.08 0 001-.32l11.56-6.67a5.56 5.56 0 012.82-.81 5.28 5.28 0 011.55.23 62.4 62.4 0 0017.22 2.41c1 0 1.94 0 2.9-.07a33.78 33.78 0 01-1.78-10.77C53.88 54.94 75.43 37 102 37c1 0 1.92 0 2.87.08C100.89 16.06 79.08 0 52.76 0"/></symbol><symbol id="icon-youtube" viewBox="0 0 28 28"><path d="M11.109 17.625l7.562-3.906-7.562-3.953v7.859zM14 4.156c5.891 0 9.797.281 9.797.281.547.063 1.75.063 2.812 1.188 0 0 .859.844 1.109 2.781.297 2.266.281 4.531.281 4.531v2.125s.016 2.266-.281 4.531c-.25 1.922-1.109 2.781-1.109 2.781-1.062 1.109-2.266 1.109-2.812 1.172 0 0-3.906.297-9.797.297-7.281-.063-9.516-.281-9.516-.281-.625-.109-2.031-.078-3.094-1.188 0 0-.859-.859-1.109-2.781C-.016 17.327 0 15.062 0 15.062v-2.125s-.016-2.266.281-4.531C.531 6.469 1.39 5.625 1.39 5.625 2.452 4.5 3.656 4.5 4.202 4.437c0 0 3.906-.281 9.797-.281z"/></symbol></svg>
